<?xml version="1.0" encoding="UTF-8"?>
<svg width="80px" height="80px" viewBox="0 0 80 80" version="1.1" xmlns="http://www.w3.org/2000/svg" xmlns:xlink="http://www.w3.org/1999/xlink">
    <title>ic_摄像头</title>
    <defs>
        <filter x="-19.4%" y="-19.4%" width="138.7%" height="138.7%" filterUnits="objectBoundingBox" id="filter-1">
            <feOffset dx="0" dy="2" in="SourceAlpha" result="shadowOffsetOuter1"></feOffset>
            <feGaussianBlur stdDeviation="2" in="shadowOffsetOuter1" result="shadowBlurOuter1"></feGaussianBlur>
            <feColorMatrix values="0 0 0 0 0   0 0 0 0 0   0 0 0 0 0  0 0 0 0.1 0" type="matrix" in="shadowBlurOuter1" result="shadowMatrixOuter1"></feColorMatrix>
            <feMerge>
                <feMergeNode in="shadowMatrixOuter1"></feMergeNode>
                <feMergeNode in="SourceGraphic"></feMergeNode>
            </feMerge>
        </filter>
    </defs>
    <g id="最好别动🤌" stroke="none" stroke-width="1" fill="none" fill-rule="evenodd">
        <g id="切图" transform="translate(-589.000000, -765.000000)">
            <g id="编组-9" transform="translate(598.000000, 774.000000)" filter="url(#filter-1)">
                <circle id="椭圆形" stroke="#FFFFFF" stroke-width="4" fill="#1DB12B" cx="31" cy="31" r="29"></circle>
                <path d="M19.3371429,36.8457143 L19.3371429,32.8685714 C19.3371429,32.7314286 19.2457143,32.64 19.1085714,32.5942857 L16.32,32.0457143 C16.1371429,32 16,32.0914286 16,32.2742857 L16,46.08 C16,46.2628571 16.1828571,46.4 16.3657143,46.3542857 L19.1542857,45.3485714 C19.2457143,45.3028571 19.3371429,45.2114286 19.3371429,45.0742857 L19.3371429,40.5028571 C19.3371429,40.3657143 19.4742857,40.2285714 19.6114286,40.2285714 L24.5942857,40.2285714 C24.6857143,40.2285714 24.7771429,40.1828571 24.8228571,40.1371429 L27.52,36.3428571 C27.6114286,36.2057143 27.5657143,36.0228571 27.4285714,35.9771429 L24.1371429,34.1485714 C24,34.0571429 23.8171429,34.1485714 23.7714286,34.2857143 L22.9028571,36.9828571 C22.8571429,37.0742857 22.7657143,37.1657143 22.6285714,37.1657143 L19.7028571,37.1657143 C19.4742857,37.1657143 19.3371429,37.0285714 19.3371429,36.8457143 L19.3371429,36.8457143 Z M47.8628571,32.4114286 L23.7714286,16.0457143 C23.7257143,16 23.68,16 23.6342857,16 L21.0285714,16 C20.9371429,16 20.8457143,16.0457143 20.8,16.1371429 L17.0514286,22.2171429 C17.0057143,22.2628571 17.0057143,22.3085714 17.0057143,22.3542857 L17.0057143,24.2742857 C17.0057143,24.3657143 17.0514286,24.4571429 17.1428571,24.5028571 L38.4457143,37.9428571 C38.4914286,37.9885714 38.5371429,37.9885714 38.5828571,37.9885714 L40.2285714,37.9885714 C40.2742857,37.9885714 40.32,37.9885714 40.3657143,37.9428571 L47.8628571,32.8685714 C48.0457143,32.7314286 48.0457143,32.5028571 47.8628571,32.4114286 L47.8628571,32.4114286 Z M18.7885714,26.7885714 L17.2342857,28.5714286 C17.1428571,28.7085714 17.1428571,28.8914286 17.28,28.9828571 L38.3085714,42.56 C38.3542857,42.6057143 38.4,42.6057143 38.4457143,42.6057143 L40.2285714,42.6057143 C40.32,42.6057143 40.3657143,42.56 40.4114286,42.5142857 L41.3257143,41.5542857 C41.3714286,41.5085714 41.3714286,41.5085714 41.3714286,41.4628571 L42.1942857,38.8571429 C42.24,38.72 42.0571429,38.5828571 41.92,38.6742857 C41.28,39.1771429 40,40.1371429 39.5885714,40.4571429 C39.4971429,40.5028571 39.36,40.5028571 39.2685714,40.4571429 C38.6742857,40.0457143 38.0342857,39.68 37.3942857,39.36 L37.3485714,39.36 L19.1542857,26.7428571 C19.0171429,26.6971429 18.88,26.6971429 18.7885714,26.7885714 L18.7885714,26.7885714 Z" id="形状" fill="#FFFFFF" fill-rule="nonzero"></path>
            </g>
        </g>
    </g>
</svg>