<?xml version="1.0" encoding="UTF-8"?>
<svg width="80px" height="80px" viewBox="0 0 80 80" version="1.1" xmlns="http://www.w3.org/2000/svg" xmlns:xlink="http://www.w3.org/1999/xlink">
    <title>ic_无人机</title>
    <defs>
        <filter x="-19.4%" y="-19.4%" width="138.7%" height="138.7%" filterUnits="objectBoundingBox" id="filter-1">
            <feOffset dx="0" dy="2" in="SourceAlpha" result="shadowOffsetOuter1"></feOffset>
            <feGaussianBlur stdDeviation="2" in="shadowOffsetOuter1" result="shadowBlurOuter1"></feGaussianBlur>
            <feColorMatrix values="0 0 0 0 0   0 0 0 0 0   0 0 0 0 0  0 0 0 0.1 0" type="matrix" in="shadowBlurOuter1" result="shadowMatrixOuter1"></feColorMatrix>
            <feMerge>
                <feMergeNode in="shadowMatrixOuter1"></feMergeNode>
                <feMergeNode in="SourceGraphic"></feMergeNode>
            </feMerge>
        </filter>
    </defs>
    <g id="最好别动🤌" stroke="none" stroke-width="1" fill="none" fill-rule="evenodd">
        <g id="切图" transform="translate(-217.000000, -765.000000)">
            <g id="编组-9" transform="translate(226.000000, 774.000000)" filter="url(#filter-1)">
                <circle id="椭圆形" stroke="#FFFFFF" stroke-width="4" fill="#FF943B" cx="31" cy="31" r="29"></circle>
                <g id="编组-8" transform="translate(15.142857, 26.714286)" fill="#FFFFFF" fill-rule="nonzero">
                    <g id="编组">
                        <path d="M10.4192234,1.62776735 C10.9253622,1.62776735 11.4346253,1.62464303 11.9407641,1.62776735 C12.2375739,1.63089166 12.4531515,1.49654618 12.5999943,1.25284972 C12.7718315,0.971661506 12.7562099,0.690473289 12.5968699,0.406160758 C12.4625245,0.171837244 12.2375739,0.0843564652 12.0032504,0.00312431352 L8.8195749,0.00312431352 C8.60087295,0.0624862705 8.37592238,0.0968537193 8.20720945,0.281188217 C7.99788044,0.509263104 7.76980555,0.721716424 7.55110361,0.943542684 C7.49799028,0.996656014 7.4573742,1.05914228 7.39801224,1.13412581 C7.20742912,0.649857213 6.98247854,0.237447828 6.53570171,0.00312431352 L6.22327036,0.00312431352 C5.8171096,0.278063904 5.5171755,0.668603094 5.37033277,1.12787718 C5.31721944,1.08101248 5.27347905,1.0403964 5.23286297,0.999780328 C4.9391775,0.718592111 4.65798928,0.424906639 4.34868224,0.162464303 C4.23620696,0.0687348975 4.05499677,0.0531133299 3.90502972,0.00312431352 L0.824456588,0.00312431352 C0.805710707,0.0156215676 0.79008914,0.0343674488 0.771343258,0.0343674488 C0.480782101,0.059361957 0.265204467,0.187458811 0.115237418,0.44365252 C-0.0378539444,0.702970543 -0.0347296309,0.962288565 0.102740164,1.21223365 C0.243334273,1.46530304 0.452663279,1.63089166 0.771343258,1.63089166 C3.98626187,1.62776735 7.2043048,1.62776735 10.4192234,1.62776735 L10.4192234,1.62776735 Z M31.6489338,0.178085871 C31.5052154,0.0906050922 31.3333782,0.059361957 31.1740382,0 L28.093465,0 C27.9684925,0.0374917623 27.8310227,0.0531133299 27.724796,0.118723914 C27.5685804,0.218701947 27.4279862,0.346798801 27.2936408,0.474895656 C27.0780631,0.681100348 26.8718584,0.893553668 26.6469079,1.11850424 C26.4344545,0.668603094 26.2188769,0.243696455 25.7752244,0 L25.462793,0 C25.0191405,0.234323514 24.8004386,0.643608586 24.5661151,1.13725012 C24.3130457,0.859186219 24.0662249,0.581122316 23.8100312,0.306182725 C23.6538155,0.137469795 23.4726053,0.0218701947 23.2289089,0.0343674488 C23.2132873,0.0343674488 23.1945414,0.0124972541 23.1757955,0.00312431352 L20.0952224,0.00312431352 C20.0764765,0.0156215676 20.060855,0.0343674488 20.0421091,0.0343674488 C19.7109318,0.0531133299 19.4859813,0.21245332 19.3516358,0.518636045 C19.1266852,1.02789915 19.4953542,1.63401597 20.0421091,1.63401597 C23.7662908,1.62776735 27.4873482,1.62776735 31.2115299,1.63401597 C31.5645774,1.63401597 31.8551385,1.39031952 31.9551165,1.09038542 C32.0800891,0.718592111 31.9332463,0.353047428 31.6489338,0.178085871 L31.6489338,0.178085871 Z M26.8781071,3.627328 L26.8781071,2.22763554 L24.3849049,2.22763554 L24.3849049,3.63357663 L23.6663128,3.63357663 C22.044794,3.63357663 20.4263996,3.63357663 18.8048809,3.63045232 C18.7392703,3.63045232 18.6486652,3.60858212 18.6142978,3.56484173 C18.4643307,3.36176135 18.3487311,3.13056215 18.1862668,2.93685471 C17.8832084,2.56818572 17.5145394,2.27137593 17.0740112,2.08079281 C16.642856,1.893334 16.1960791,1.8027289 15.7180592,1.86521517 C15.377509,1.90895556 15.0494561,1.99331203 14.7526463,2.15577633 C14.1777726,2.46508337 13.7403687,2.92435746 13.424813,3.48985821 C13.3560781,3.61483075 13.2810946,3.63670094 13.1592464,3.63670094 C11.4346253,3.63357663 9.71000425,3.63357663 7.98538319,3.63357663 C7.86353496,3.63357663 7.67607615,3.67731702 7.63858438,3.62107937 C7.57609811,3.52734997 7.60734125,3.37113429 7.60421694,3.23991312 C7.60109262,2.90248726 7.60421694,2.5650614 7.60421694,2.22763554 L5.10789043,2.22763554 L5.10789043,3.62420369 C5.07352298,3.627328 5.05165279,3.63045232 5.02978259,3.63357663 C4.68923242,3.65544682 4.4299144,3.81791113 4.29556891,4.13034248 C4.18621794,4.38653619 4.20496382,4.83018871 4.48302773,5.02077183 C4.65174066,5.13637143 4.84232378,5.23322515 5.03915553,5.29258711 C6.06393037,5.60189415 7.09182952,5.89870393 8.11660435,6.19551372 C8.67273216,6.35797802 9.22885997,6.51731801 9.78498778,6.68290663 C10.0911705,6.77351172 10.3942289,6.86724113 10.7160332,6.96721916 C10.4754611,7.15780228 10.2473862,7.33276384 10.0193113,7.51397403 C9.66001523,7.79828656 9.29759487,8.0857234 8.93829881,8.37316024 C8.56025687,8.67309434 8.19471219,8.98865001 7.80729731,9.27296254 C7.48549302,9.51041037 7.31990441,9.80722015 7.32302872,10.2071323 C7.32615303,11.0475726 7.32302872,11.8911373 7.32615303,12.7315776 C7.32615303,12.8440529 7.33865029,12.9596525 7.36052048,13.0690035 C7.49799028,13.7969685 8.31343611,14.0937783 8.90080705,13.7376066 C9.24448154,13.5282776 9.3975729,13.2002246 9.40069721,12.8065611 C9.40694584,12.1598282 9.40694584,11.5162197 9.40069721,10.8694868 C9.40069721,10.7445142 9.43194035,10.6695307 9.54129132,10.6070444 C10.1692783,10.2602456 10.7972654,9.9103225 11.4252524,9.56039938 C11.750181,9.3791892 12.0751096,9.1948547 12.4000382,9.0105202 C13.4029428,10.0134248 14.6183008,10.4851962 16.0117446,10.4820719 C17.4020641,10.4789476 18.6142978,10.0103005 19.5984566,9.00427158 C19.8484016,9.14799 20.0858495,9.28858411 20.3295459,9.42292959 C21.048138,9.82596603 21.7698545,10.2258782 22.4915709,10.6257903 C22.5884246,10.6789036 22.632165,10.7445142 22.6290407,10.8663624 C22.622792,11.5568357 22.6259164,12.2504333 22.6259164,12.9409066 C22.6259164,13.0033929 22.6352893,13.0658792 22.6509109,13.1252411 C22.7508889,13.5907638 23.2539034,13.8938222 23.6694371,13.8875736 C24.1911974,13.881325 24.6692174,13.3814348 24.6692174,12.8784203 C24.6692174,11.9504992 24.675466,11.0225781 24.6660931,10.0915327 C24.6629688,9.78534996 24.5317476,9.52915625 24.2786782,9.33544881 C23.9318794,9.07300647 23.5944536,8.79806688 23.2539034,8.52937592 C22.7602618,8.13883673 22.2666203,7.74829754 21.7761031,7.35775835 C21.6198874,7.23278581 21.4699204,7.10156464 21.2887102,6.94847328 C21.3824396,6.9297274 21.4293043,6.92035446 21.476169,6.9078572 C22.3447281,6.65166349 23.2132873,6.39546978 24.0849708,6.13927608 C25.1003727,5.83934198 26.1126503,5.520662 27.1343008,5.24572241 C27.6498125,5.1051283 27.9466223,4.50213579 27.6560611,4.03036445 C27.4748509,3.75542486 27.2186572,3.63357663 26.8781071,3.627328 L26.8781071,3.627328 Z M15.9992474,9.02614177 C15.48686,9.0105202 15.1338125,8.69808885 15.1244396,8.1544583 C15.118191,7.64831951 15.4899843,7.28277482 15.9929987,7.27340188 C16.4803917,7.26402894 16.8709308,7.66706539 16.8803038,8.1544583 C16.8646822,8.63560258 16.5022619,9.03863903 15.9992474,9.02614177 Z" id="形状"></path>
                    </g>
                </g>
            </g>
        </g>
    </g>
</svg>