<?xml version="1.0" encoding="UTF-8"?>
<svg width="80px" height="80px" viewBox="0 0 80 80" version="1.1" xmlns="http://www.w3.org/2000/svg" xmlns:xlink="http://www.w3.org/1999/xlink">
    <title>ic_å‘Šè­¦</title>
    <defs>
        <filter x="-19.4%" y="-19.4%" width="138.7%" height="138.7%" filterUnits="objectBoundingBox" id="filter-1">
            <feOffset dx="0" dy="2" in="SourceAlpha" result="shadowOffsetOuter1"></feOffset>
            <feGaussianBlur stdDeviation="2" in="shadowOffsetOuter1" result="shadowBlurOuter1"></feGaussianBlur>
            <feColorMatrix values="0 0 0 0 0   0 0 0 0 0   0 0 0 0 0  0 0 0 0.1 0" type="matrix" in="shadowBlurOuter1" result="shadowMatrixOuter1"></feColorMatrix>
            <feMerge>
                <feMergeNode in="shadowMatrixOuter1"></feMergeNode>
                <feMergeNode in="SourceGraphic"></feMergeNode>
            </feMerge>
        </filter>
    </defs>
    <g id="æœ€å¥½åˆ«åŠ¨ðŸ¤Œ" stroke="none" stroke-width="1" fill="none" fill-rule="evenodd">
        <g id="åˆ‡å›¾" transform="translate(-824.000000, -765.000000)">
            <g id="ç¼–ç»„-9" transform="translate(833.000000, 774.000000)" filter="url(#filter-1)">
                <circle id="æ¤­åœ†å½¢" stroke="#FFFFFF" stroke-width="4" fill="#FF4D4F" cx="31" cy="31" r="29"></circle>
                <g id="ç¼–ç»„-7" transform="translate(15.000000, 15.000000)">
                    <rect id="çŸ©å½¢" x="0" y="0" width="32" height="32"></rect>
                    <g id="ç¼–ç»„" transform="translate(2.591242, 2.285714)" fill="#FFFFFF" fill-rule="nonzero">
                        <path d="M16.9543306,8.4768 C19.5010734,9.70422857 21.275702,12.3908571 21.3456448,15.2283429 C21.3689591,18.4731429 21.3483877,21.7179429 21.3552448,24.9627429 C21.3593591,25.1835429 21.3867877,25.4043429 21.419702,25.6224 C21.8379877,25.7938286 22.302902,25.9268571 22.6046163,26.2875429 C22.9090734,26.592 23.0256448,27.0171429 23.0983306,27.4285714 L4.19044484,27.4285714 C4.30427341,27.0322286 4.35775912,26.5878857 4.65398769,26.2765714 C4.96667341,25.9241143 5.43844484,25.8048 5.85535912,25.6237714 C5.90061627,25.3604571 5.93078769,25.0930286 5.92941627,24.8256 C5.92255912,21.7618286 5.92804484,18.6994286 5.92667341,15.6356571 C5.90335912,13.7636571 6.53833055,11.8724571 7.74930198,10.4393143 C8.86015912,9.22971429 10.2823306,8.24228571 11.9143306,7.91588571 C13.5943306,7.50857143 15.3963877,7.7472 16.9543306,8.4768 Z M15.1481591,12.3689143 C14.0465591,14.0218286 12.9125591,15.6539143 11.7831877,17.2888929 L10.6567306,18.9257143 L12.6891877,18.9257143 C12.4971877,20.4973714 12.3518163,22.0745143 12.1515877,23.6461714 L13.0486446,22.3206473 C14.2466368,20.553984 15.4548106,18.7924114 16.7033591,17.0633143 L16.0008321,17.0753016 C15.5323115,17.0773333 15.0635877,17.0706286 14.5954734,17.0742857 C14.7998163,15.5081143 14.920502,13.9323429 15.1481591,12.3689143 Z M27.2770734,10.6916571 C27.3113591,11.0852571 27.0425591,11.4692571 26.6448448,11.5309714 C25.4187877,11.8614857 24.1927306,12.192 22.9639306,12.5074286 C22.3097591,12.7460571 21.6871306,11.9492571 21.9778734,11.3540571 C22.1150163,10.9961143 22.4976448,10.8589714 22.8418734,10.7808 C23.944502,10.4900571 25.0443877,10.1897143 26.1483877,9.90445714 C26.6722734,9.66034286 27.3552448,10.1033143 27.2770734,10.6916571 Z M1.31593055,9.95108571 C2.48164484,10.2829714 3.66244484,10.5627429 4.82267341,10.9097143 C5.32873055,11.0592 5.54130198,11.7325714 5.22998769,12.1536 C5.05718769,12.4731429 4.65947341,12.6144 4.31661627,12.5074286 C3.16187341,12.2221714 2.01673055,11.8985143 0.866101981,11.5995429 C0.594559123,11.5117714 0.262673409,11.4582857 0.106330552,11.1894857 C-0.0815551623,10.7684571 -0.0404123052,10.1965714 0.391587695,9.94285714 C0.676844838,9.75771429 1.01558769,9.88251429 1.31593055,9.95108571 Z M5.85261627,3.4848 C6.48073055,4.56274286 7.10747341,5.64205714 7.72187341,6.72822857 C7.96873055,7.13965714 7.81513055,7.80754286 7.32553055,7.95565714 C7.03615912,8.09142857 6.72210198,8.00914286 6.44644484,7.88708571 C5.73604484,6.72411429 5.05307341,5.54331429 4.36735912,4.36662857 C4.12461627,3.98125714 4.17810198,3.39702857 4.59913055,3.15702857 C5.00370198,2.81965714 5.62495912,3.04594286 5.85261627,3.4848 Z M23.051702,3.7248 C23.118902,4.04571429 22.9337591,4.3392 22.7815306,4.60662857 C22.1273591,5.6928 21.5088448,6.80228571 20.8368448,7.88022857 C20.4830163,8.06674286 20.0318163,8.08731429 19.7095306,7.82125714 C19.3968448,7.52091429 19.3694163,7.008 19.5998163,6.65005714 C20.1662163,5.65714286 20.7463306,4.67108571 21.3113591,3.67817143 C21.4690734,3.40662857 21.659702,3.10217143 21.9902163,3.03222857 C22.4510163,2.8704 23.0009591,3.2448 23.051702,3.7248 Z M13.6601591,0 C14.1072448,0.0205714286 14.4857591,0.3648 14.4843877,0.824228571 C14.5186734,2.05851429 14.488502,3.29691429 14.4994734,4.53257143 C14.5296448,4.98102857 14.2704448,5.52822857 13.7739877,5.56662857 C13.2459877,5.67634286 12.7536448,5.18537143 12.789302,4.66285714 C12.7838163,3.38605714 12.7673591,2.10651429 12.7975306,0.829714286 C12.7879306,0.370285714 13.1815306,0.0219428571 13.6231306,0 L13.6601591,0 Z" id="å½¢çŠ¶ç»“åˆ"></path>
                    </g>
                </g>
            </g>
        </g>
    </g>
</svg>